<?xml version="1.0" standalone="no"?>
<!DOCTYPE svg PUBLIC "-//W3C//DTD SVG 20010904//EN"
 "http://www.w3.org/TR/2001/REC-SVG-20010904/DTD/svg10.dtd">
<svg version="1.0" xmlns="http://www.w3.org/2000/svg"
 width="169.000000pt" height="169.000000pt" viewBox="0 0 169.000000 169.000000"
 preserveAspectRatio="xMidYMid meet">
<metadata>
Created by potrace 1.14, written by Peter Selinger 2001-2017
</metadata>
<g transform="translate(0.000000,169.000000) scale(0.100000,-0.100000)"
fill="#000000" stroke="none">
<path d="M790 1599 c-112 -14 -147 -20 -211 -40 -36 -12 -78 -31 -94 -43 l-27
-22 21 -42 c25 -49 30 -87 21 -150 -4 -26 -11 -72 -14 -102 -13 -107 -36 -265
-42 -284 -4 -13 -9 -15 -13 -7 -6 9 -18 9 -49 -2 -38 -13 -43 -13 -80 8 -22
13 -57 41 -77 64 -21 22 -44 41 -52 41 -8 0 -23 -20 -34 -44 l-19 -44 25 -79
c13 -43 27 -98 30 -124 5 -36 11 -48 35 -62 29 -17 41 -46 71 -162 16 -65 27
-78 61 -73 16 3 31 1 34 -4 3 -5 10 -6 15 -2 16 10 55 -4 86 -30 24 -20 42
-25 96 -27 37 -1 65 -4 62 -7 -3 -3 -35 -4 -72 -3 -54 2 -73 7 -101 29 -37 28
-86 37 -100 18 -5 -6 -16 -46 -25 -89 -14 -65 -22 -84 -52 -114 -48 -48 -46
-57 11 -67 29 -5 209 -28 334 -43 82 -10 387 -10 460 -1 267 35 416 154 474
376 21 77 15 196 -12 248 -46 90 -141 144 -254 144 -84 0 -83 14 0 16 85 2 85
2 79 23 -3 13 0 18 8 15 17 -7 70 68 97 136 17 42 22 77 22 150 1 88 -2 101
-31 160 -53 108 -139 179 -268 220 -58 19 -96 23 -215 25 -80 1 -170 -2 -200
-6z m409 -338 c-13 -11 -26 -17 -29 -14 -6 6 30 33 43 33 5 0 -1 -9 -14 -19z
m58 -193 c-3 -8 -6 -5 -6 6 -1 11 2 17 5 13 3 -3 4 -12 1 -19z m-518 -712 c65
-6 70 -9 106 -68 26 -44 2 -32 -25 12 -14 22 -30 41 -37 41 -7 1 -17 3 -23 4
-5 1 -32 3 -60 4 -27 0 -50 5 -50 11 0 5 6 8 13 5 6 -2 41 -6 76 -9z"/>
</g>
</svg>
