<?xml version="1.0" encoding="UTF-8"?>
<svg width="169px" height="169px" viewBox="0 0 169 169" version="1.1" xmlns="http://www.w3.org/2000/svg" xmlns:xlink="http://www.w3.org/1999/xlink">
    <title>Group 5</title>
    <g id="Borneo" stroke="none" stroke-width="1" fill="none" fill-rule="evenodd">
        <g id="Group-5">
            <rect id="Rectangle-Copy-3" x="0" y="0" width="169" height="169"></rect>
            <g id="Group" transform="translate(12.000000, 8.000000)" fill="#D40008" fill-rule="nonzero">
                <path d="M37.1927033,69.0943308 L45.1142826,63.1867561 C45.6756543,62.7421 46.42415,62.6150554 47.0478964,62.8691446 L57.152588,66.1087823 C57.6515851,66.2358269 58.1505822,66.2993492 58.6495794,66.1087823 L71.4363805,62.2974438 C72.3720001,62.0433546 73.1828704,61.3446092 73.6818675,60.4552969 L82.8509395,42.3514391 C82.9133142,42.1608722 82.9756888,42.0338276 83.0380634,41.8432607 L85.7825476,30.2186783 C85.9696715,29.329366 86.7181672,28.6306206 87.6537868,28.503576 L101.875205,26.851996 C102.249452,26.7884737 102.561326,26.851996 102.873199,26.9790406 L106.865176,28.503576 C107.239424,28.6306206 107.551297,28.8211876 107.800795,29.1387991 L109.422536,30.7903791 C110.295781,31.6796914 110.171032,33.2677491 109.110663,33.9664945 L107.239424,35.2369407 C106.241429,35.8721637 105.991931,37.2061322 106.553303,38.2224891 L109.110663,42.6055284 C109.173037,42.732573 109.297787,42.8596176 109.360161,42.9231399 L114.100634,48.3225361 C114.537256,48.8307145 114.72438,49.5294599 114.599631,50.2282053 L113.788761,54.4206776 C113.664011,55.119423 113.851135,55.8181684 114.287758,56.3263469 L125.577568,69.5389869 C125.951815,69.9201208 126.138939,70.4918215 126.138939,71 L126.138939,71 C141.60785,57.3427038 138.800991,35.7451191 138.800991,35.7451191 C138.800991,35.7451191 136.306006,-1.47895331 83.1004381,0.0455820751 C47.110271,1.061939 37.0679541,8.17643749 34.4482192,11.0349413 C33.9492221,11.6066421 33.8868474,12.4959544 34.3234699,13.1311775 C39.1886918,19.7374975 38.62732,25.5815499 38.62732,25.5815499 L33.6373489,63.1867561 C33.6373489,63.1867561 33.3878503,64.8383361 33.0136025,67.69684 C32.8888532,68.7131969 33.6373489,69.6025092 34.6353431,69.6025092 L35.8828359,69.6025092 C36.381833,69.5389869 36.8184555,69.4119423 37.1927033,69.0943308 Z" id="Path"></path>
                <path d="M123.64461,75 L112.953341,75 C111.702901,75 110.640026,75.7578947 110.202372,76.9578947 L107.326358,85.1684211 C107.201314,85.5473684 107.138792,85.9894737 107.201314,86.4315789 L107.638968,91.2947368 C107.70149,92.2421053 107.326358,93.1894737 106.638616,93.7578947 L99.0109271,100.389474 L94.5718624,104.431579 C93.5089878,105.378947 93.3214217,107.021053 94.0716861,108.221053 L95.509693,110.431579 C96.0723913,111.315789 96.1349134,112.389474 95.6972591,113.336842 L87.5693942,130.326316 C87.194262,131.021053 86.5690417,131.589474 85.8187772,131.842105 L75.3150749,135.189474 C74.0646342,135.568421 72.6891494,135.126316 72.001407,133.989474 L68.4376508,128.368421 C67.8749525,127.484211 66.9371219,126.915789 65.9367693,126.726316 L58.3090808,125.715789 C58.1840367,125.715789 58.1215147,125.715789 57.9964706,125.715789 L39.6149917,125.147368 C38.6146391,125.084211 37.6142865,124.768421 36.8015,124.136842 L31.2995607,119.968421 C30.7993844,119.589474 30.174164,119.4 29.5489437,119.4 L25.6100553,119.4 C24.4846586,119.4 23.484306,120.221053 23.2967399,121.357895 C22.2338653,127.673684 21.2960347,132.6 20.6708144,134.621053 C19.5454177,138.347368 16.731926,141 14.0434784,142.831579 C12.2303393,144.031579 12.9180817,146.810526 15.043831,147.126316 C28.8612012,149.084211 58.0589927,153 70.2507899,153 C95.3846489,153 134.898576,153 144.339404,114.978947 C151.904571,84.4105263 131.584908,77.0842105 124.26983,75.1263158 C124.019742,75.0631579 123.832176,75 123.64461,75 Z" id="Path"></path>
                <path d="M29.9929728,69.1471631 C29.4940103,69.1471631 28.9950478,69.2102805 28.4960854,69.3996325 L22.7580171,71.3562707 C22.0719437,71.6087402 21.3858703,71.5456228 20.7621672,71.1669186 L15.2112098,68.074168 C15.0240989,67.8848159 14.7746177,67.7585812 14.5875068,67.5692291 L7.35255106,59.8057938 C6.1051449,58.4803292 3.98455444,58.8590334 3.23611075,60.4369674 L0.242335976,66.9380555 C-0.0695155624,67.5692291 -0.0695155624,68.2635201 0.179965668,68.8946937 L4.73299813,81.5181657 C4.79536844,81.7075178 4.79536844,81.8968699 4.85773875,82.086222 L5.79329336,91.4907087 C5.79329336,91.6800607 5.91803398,91.9325302 6.04277459,91.9956475 L11.5313617,96.3507454 C11.6561023,96.4138628 11.7184726,96.4769801 11.7808429,96.6032148 L13.5272115,100.705843 C13.5895818,100.832078 13.5895818,100.958313 13.6519521,101.084547 L17.5189112,116.106479 C17.8307628,117.242592 18.8286877,118 19.9513532,118 L23.2569795,118 C24.1925341,118 25.0033481,117.305709 25.1904591,116.358949 C27.5605308,102.031308 30.4295649,82.5280435 31.9888226,71.4825054 C32.1135632,70.2201582 31.1780086,69.1471631 29.9929728,69.1471631 L29.9929728,69.1471631 Z" id="Path"></path>
            </g>
        </g>
    </g>
</svg>