<svg width="275" height="46" xmlns="http://www.w3.org/2000/svg"><g fill-rule="nonzero" fill="none"><path d="M42.915 33.556c-1.458-.847-2.552-1.966-3.28-3.373-.73-1.406-1.094-2.964-1.094-4.688 0-.801.06-1.542.197-2.253a15.454 15.454 0 012.415-6.004c1.23-1.83 2.841-3.296 4.831-4.4 1.99-1.104 4.253-1.649 6.82-1.649 2.051 0 3.783.393 5.18 1.18 1.413.786 2.446 1.845 3.145 3.19.684 1.347 1.033 2.874 1.033 4.568 0 .801-.06 1.542-.197 2.253-.38 2.117-1.185 4.128-2.4 6.034a14.41 14.41 0 01-4.74 4.627c-1.944 1.18-4.132 1.77-6.578 1.77-2.096 0-3.873-.424-5.332-1.255zm8.507-6.186c.775-1.497 1.352-3.266 1.717-5.323.197-1.104.304-2.011.304-2.737 0-1.95-.623-2.919-1.884-2.919-.942 0-1.808.68-2.598 2.027-.79 1.346-1.352 3.01-1.701 4.99-.182.968-.273 1.89-.273 2.768 0 1.089.152 1.92.47 2.525.32.605.79.908 1.398.908.927 0 1.777-.741 2.567-2.239zM65.513 33.667c-.576-.773-.864-1.732-.864-2.891 0-.541.09-1.221.258-2.056.166-.835.455-2.04.85-3.633a90.312 90.312 0 001.061-4.499c.258-1.252.38-2.303.38-3.169 0-.896-.046-1.561-.122-1.979a5.028 5.028 0 00-.364-1.174 4.088 4.088 0 00-.137-.356 2.527 2.527 0 01-.136-.448c.925-.588 1.82-1.036 2.685-1.33.865-.294 1.67-.448 2.397-.448 1.199 0 2.155.325 2.883.958.728.634 1.092 1.454 1.092 2.458 0 .356-.03.742-.106 1.16a19.37 19.37 0 01-.303 1.438h.273c1.047-2.15 2.154-3.757 3.307-4.855 1.153-1.097 2.413-1.654 3.793-1.654 1.457 0 2.58.449 3.368 1.345.805.897 1.199 2.01 1.199 3.34 0 2.18-.607 3.663-1.805 4.467-1.199.804-2.807 1.206-4.825 1.206h-.137a16.298 16.298 0 00-.424-1.963c-.152-.542-.38-.913-.668-1.129a1.11 1.11 0 00-.273-.03c-.728 0-1.532.54-2.412 1.622-.88 1.082-1.639 2.458-2.276 4.112a15.36 15.36 0 00-1.032 4.978c-.015.279-.03.65-.03 1.113 0 .557.03 1.036.09 1.423.062.402.183.865.365 1.39-.394.372-1.108.758-2.154 1.145-1.032.402-2.018.603-2.929.603-1.41 0-2.427-.387-3.004-1.144zM110.31 18.667c-.21.973-.495 2.193-.87 3.692-.436 1.823-.751 3.244-.961 4.264-.21 1.02-.33 1.854-.346 2.518-.075 1.066.21 2.286.841 3.646-.495.479-1.216.942-2.147 1.375-.93.433-1.831.649-2.717.649-1.276 0-2.266-.325-3.002-.958-.72-.633-1.096-1.715-1.096-3.244 0-.82.105-1.746.315-2.781.21-1.035.496-2.333.871-3.862.18-.727.345-1.39.48-2.04.15-.633.226-1.112.24-1.421.016-.772-.044-1.344-.195-1.684-.15-.355-.48-.525-1.02-.525-.841 0-1.652.633-2.432 1.9s-1.426 2.765-1.937 4.48c-.51 1.73-.795 3.198-.87 4.419-.03.68-.03 1.328.045 1.93.06.603.195 1.268.39 1.994-.586.448-1.381.85-2.357 1.205-.976.355-1.906.54-2.807.54-1.126 0-2.027-.34-2.702-1.004-.676-.68-1.006-1.622-1.006-2.842 0-.48.09-1.174.285-2.101.195-.927.466-2.194.84-3.785.466-1.993.812-3.585 1.052-4.774.24-1.19.345-2.148.345-2.858 0-.896-.045-1.576-.135-2.024a7.48 7.48 0 00-.405-1.329c-.015-.062-.09-.262-.21-.602a16.859 16.859 0 012.386-1.252c.796-.34 1.682-.51 2.642-.51 1.051 0 1.982.279 2.762.835.781.556 1.171 1.36 1.171 2.44 0 .325-.06.881-.195 1.654-.06.262-.12.649-.195 1.158h.105c1.411-2.286 2.792-3.954 4.143-5.005 1.351-1.05 2.747-1.576 4.189-1.576 1.44 0 2.612.433 3.542 1.313.931.881 1.366 2.163 1.291 3.863-.015.556-.12 1.328-.33 2.302zM116.203 33.478c-1.492-.878-2.595-2.029-3.31-3.437a8.656 8.656 0 01-.994-4.406c.094-2.574.668-4.937 1.74-7.117 1.072-2.18 2.703-3.952 4.925-5.3 2.222-1.363 4.987-2.029 8.311-2.029 1.336 0 2.564.242 3.698.742s2.035 1.196 2.703 2.105a5.02 5.02 0 01.994 3.059c0 5.481-3.79 8.222-11.387 8.222-.761 0-1.554-.03-2.393-.076-.062 1.015.125 1.908.56 2.68.42.772 1.15 1.166 2.175 1.166a17.266 17.266 0 002.377-1.014c.699-.364 1.538-.864 2.547-1.484.249-.152.497-.303.777-.455.28-.166.575-.333.886-.514.388.302.823.848 1.29 1.62.465.772.714 1.499.714 2.18 0 1.09-.544 2.044-1.632 2.862-1.087.818-2.423 1.454-4.023 1.878-1.6.439-3.123.65-4.568.65-2.097 0-3.899-.438-5.39-1.332zm8.637-12.734c.886-.258 1.523-.606 1.911-1.075.389-.455.575-1.075.56-1.863.015-.47-.11-.863-.404-1.18-.296-.319-.777-.47-1.46-.47-.684 0-1.337.212-1.943.65-.606.44-1.134 1.046-1.569 1.833-.435.787-.73 1.696-.87 2.726 1.631-.167 2.905-.379 3.775-.621zM139.888 33.556c-1.458-.847-2.552-1.966-3.28-3.373-.73-1.406-1.094-2.964-1.094-4.688 0-.801.06-1.542.197-2.253a15.454 15.454 0 012.415-6.004c1.23-1.83 2.841-3.296 4.831-4.4 1.99-1.104 4.253-1.649 6.82-1.649 2.051 0 3.783.393 5.18 1.18 1.413.786 2.446 1.845 3.145 3.19.684 1.347 1.033 2.874 1.033 4.568 0 .801-.06 1.542-.197 2.253-.38 2.117-1.185 4.128-2.4 6.034a14.41 14.41 0 01-4.74 4.627c-1.944 1.18-4.132 1.77-6.578 1.77-2.08 0-3.873-.424-5.332-1.255zm8.507-6.186c.775-1.497 1.352-3.266 1.717-5.323.197-1.104.304-2.011.304-2.737 0-1.95-.623-2.919-1.884-2.919-.942 0-1.808.68-2.598 2.027-.79 1.36-1.352 3.01-1.701 4.99-.182.968-.273 1.89-.273 2.768 0 1.089.151 1.92.47 2.525.32.605.79.908 1.398.908.927 0 1.777-.741 2.567-2.239zM158.964 44.75c-.75-.824-1.1-1.891-1.07-3.187.06-1.22.32-3.02.795-5.383.474-2.363 1.162-5.52 2.05-9.453.596-2.684 1.054-4.727 1.345-6.145.29-1.418.443-2.364.443-2.806 0-1.128-.06-1.967-.168-2.5-.107-.534-.23-.961-.351-1.25-.123-.306-.215-.504-.245-.61a15.62 15.62 0 012.691-1.236c.98-.35 1.805-.518 2.432-.518 1.239 0 2.217.29 2.936.854.719.58 1.07 1.296 1.07 2.165 0 .64-.06 1.19-.198 1.662a20.824 20.824 0 01-.612 1.753l-.214.519.168.03c1.285-2.18 2.63-3.98 4.068-5.367 1.438-1.387 3.059-2.089 4.863-2.089 1.254 0 2.386.381 3.35 1.129.978.762 1.728 1.784 2.232 3.064.505 1.296.734 2.73.689 4.285a19.415 19.415 0 01-1.774 7.502c-1.102 2.363-2.524 4.254-4.298 5.687-1.774 1.434-3.67 2.15-5.704 2.15-.856 0-1.575-.122-2.156-.35a4.647 4.647 0 01-1.438-.915c-.382-.366-.856-.915-1.422-1.632h-.245c-.199.732-.413 1.967-.657 3.72-.245 1.754-.352 3.248-.352 4.514 0 .717.076 1.388.23 2.043.152.656.366 1.19.61 1.617-.58.487-1.421.945-2.492 1.372-1.07.412-2.248.625-3.532.625-1.285-.015-2.294-.427-3.044-1.25zm15.018-16.453c.78-.915 1.422-2.15 1.896-3.705.49-1.54.75-3.233.81-5.047.016-.884-.106-1.54-.382-1.936-.275-.397-.657-.595-1.147-.595-.902 0-1.835.534-2.829 1.6-.994 1.068-1.88 2.547-2.645 4.469l-.765 5 .612.61c.306.306.611.55.933.717.32.183.627.275.948.275.917 0 1.789-.458 2.569-1.388zM190.797 33.478c-1.491-.878-2.594-2.029-3.309-3.437a8.656 8.656 0 01-.994-4.406c.093-2.574.668-4.937 1.74-7.117 1.072-2.18 2.703-3.952 4.925-5.3 2.221-1.363 4.986-2.029 8.311-2.029 1.336 0 2.563.242 3.697.742 1.135.5 2.036 1.196 2.704 2.105a5.02 5.02 0 01.994 3.059c0 5.481-3.79 8.222-11.388 8.222-.76 0-1.553-.03-2.392-.076-.062 1.015.124 1.908.56 2.68.419.772 1.149 1.166 2.174 1.166a17.266 17.266 0 002.377-1.014c.7-.364 1.538-.864 2.548-1.484.248-.152.497-.303.777-.455.28-.166.575-.333.885-.514.389.302.824.848 1.29 1.62.466.772.714 1.499.714 2.18 0 1.09-.543 2.044-1.63 2.862-1.088.818-2.424 1.454-4.025 1.878-1.6.439-3.122.65-4.567.65-2.113 0-3.9-.438-5.39-1.332zm8.638-12.734c.885-.258 1.522-.606 1.91-1.075.39-.47.576-1.075.56-1.863.016-.47-.109-.863-.404-1.18-.295-.319-.777-.47-1.46-.47-.684 0-1.336.212-1.942.65-.606.44-1.134 1.046-1.57 1.833-.434.787-.73 1.696-.87 2.726 1.632-.167 2.89-.379 3.776-.621zM210.657 35.043c-.991-.684-1.75-1.633-2.261-2.862-.511-1.23-.774-2.676-.774-4.31 0-.668.03-1.29.108-1.866.186-2.178.836-4.37 1.967-6.595 1.13-2.225 2.602-4.06 4.43-5.507 1.827-1.447 3.794-2.178 5.916-2.178 1.254 0 2.37.28 3.33.84.96.56 1.827 1.338 2.586 2.334h.14c.123-.638.2-1.354.232-2.147.03-.793.046-1.898.046-3.282 0-.545-.124-1.136-.387-1.805a19.266 19.266 0 00-.805-1.773c.557-.467 1.239-.856 2.06-1.182.82-.327 1.61-.576 2.37-.731.758-.171 1.3-.25 1.64-.25.868 0 1.58.172 2.138.514.558.342.96.778 1.208 1.291.248.513.372 1.027.372 1.54 0 1.042-.201 2.613-.604 4.729a526.036 526.036 0 01-1.766 8.711c-.65 3.127-1.1 5.32-1.347 6.611-.248 1.291-.372 2.21-.372 2.77s.047 1.104.124 1.632c.078.53.17.996.263 1.4.093.405.155.685.17.81-.464.404-1.238.808-2.322 1.213-1.085.404-2.06.606-2.928.606-.743 0-1.409-.17-2.028-.513a4.231 4.231 0 01-1.425-1.276c-.341-.513-.511-1.01-.511-1.524 0-.451.108-.933.34-1.462a25.22 25.22 0 01.852-1.742h-.248c-1.161 2.1-2.555 3.795-4.181 5.086-1.627 1.291-3.222 1.93-4.802 1.93-1.362 0-2.54-.343-3.53-1.012zm10.857-6.907c.867-1.026 1.564-2.24 2.106-3.64l.28-1.197c.495-2.272.82-3.812.975-4.62-1.13-1.074-2.308-1.618-3.516-1.618-.945 0-1.765.404-2.478 1.229-.712.824-1.27 1.929-1.688 3.313-.418 1.4-.666 2.94-.728 4.651-.03.887.109 1.68.45 2.38.325.7.867 1.042 1.579 1.042 1.13 0 2.153-.513 3.02-1.54zM237.281 33.759c-.704-.696-1.065-1.656-1.065-2.862 0-.418.032-.82.11-1.192.094-.557.235-1.207.438-1.98a38.09 38.09 0 00.376-1.485c.251-.929.486-1.934.737-3.017.25-1.083.47-2.15.658-3.187.25-1.3.36-2.26.36-2.878 0-.51-.063-1.052-.188-1.61a19.537 19.537 0 00-.627-2.103c.094-.062.423-.248.972-.604a8.13 8.13 0 011.895-.835 7.555 7.555 0 012.209-.325c1.613 0 2.726.31 3.337.928.61.62.924 1.516.924 2.708 0 .448-.047.959-.126 1.547-.078.588-.172 1.176-.266 1.78a88.468 88.468 0 01-.846 4.13c-.47 2.104-.814 3.79-1.034 5.075-.094.603-.14 1.13-.14 1.578 0 .742.109 1.717.328 2.94.079.278.126.51.141.696-.767.48-1.566.897-2.38 1.237-.831.34-1.77.51-2.868.51-1.253-.015-2.24-.355-2.945-1.051zm3.65-25.776c-.814-.789-1.221-1.779-1.221-2.986 0-.294.03-.588.078-.882.157-.742.47-1.423.987-2.057.501-.635 1.159-1.13 1.942-1.501a6.077 6.077 0 012.6-.557c1.332 0 2.429.387 3.29 1.176.862.789 1.285 1.78 1.285 2.986 0 .263-.031.526-.078.804-.126.743-.47 1.44-1.019 2.074a5.708 5.708 0 01-2.067 1.531 6.316 6.316 0 01-2.617.573c-1.3.03-2.365-.372-3.18-1.16zM251.652 33.814c-.98-.665-1.732-1.586-2.237-2.779-.506-1.193-.766-2.598-.766-4.184 0-.65.03-1.253.107-1.812.2-2.175.858-4.35 1.961-6.494 1.103-2.145 2.559-3.912 4.351-5.287 1.793-1.374 3.754-2.069 5.869-2.069 2.298 0 4.182.906 5.653 2.734h.138c1.042-1.465 2.36-2.19 3.953-2.19.858 0 1.67.211 2.436.62.766.407 1.303.89 1.64 1.434l-.935 4.138c-.659 2.87-1.18 5.241-1.563 7.13-.383 1.887-.582 3.216-.582 4.017 0 .573.046 1.087.123 1.54.076.453.23 1.103.429 1.948-.46.393-1.226.786-2.299 1.178-1.072.393-2.053.59-2.91.59-.736 0-1.395-.167-1.992-.514-.598-.347-1.058-.77-1.395-1.284-.337-.513-.505-1.012-.505-1.495 0-.363.107-.846.337-1.435.23-.589.52-1.117.858-1.57h-.276c-1.302 2.16-2.697 3.836-4.183 5.014-1.486 1.178-3.064 1.767-4.704 1.767-1.363-.015-2.528-.348-3.508-.997zm10.74-6.721a11.64 11.64 0 002.115-3.52c.214-.92.444-1.947.674-3.065.23-1.133.398-2.009.505-2.658-.383-.378-.904-.71-1.532-.982-.643-.287-1.256-.423-1.838-.423-.904 0-1.716.378-2.437 1.133-.735.755-1.317 1.812-1.746 3.172-.43 1.359-.644 2.87-.644 4.546 0 2.22.613 3.322 1.839 3.322 1.149-.015 2.16-.513 3.064-1.525zM9.021 16.908l1.932-1.445a.477.477 0 01.472-.078l2.464.793a.586.586 0 00.365 0l3.119-.933a.928.928 0 00.548-.45l2.236-4.43c.015-.046.03-.077.045-.124l.67-2.844a.54.54 0 01.456-.42l3.469-.403a.425.425 0 01.243.03l.974.374a.467.467 0 01.228.155l.395.404a.518.518 0 01-.076.777l-.456.311c-.243.155-.304.482-.167.73l.623 1.073c.016.03.046.062.061.077l1.156 1.321a.563.563 0 01.122.467l-.198 1.025c-.03.171.016.342.122.466l2.753 3.233a.525.525 0 01.137.357c3.773-3.34 3.089-8.625 3.089-8.625S33.194-.357 20.218.016C11.44.264 8.99 2.005 8.352 2.704a.428.428 0 00-.03.513C9.507 4.833 9.37 6.263 9.37 6.263l-1.217 9.2s-.06.404-.152 1.103a.406.406 0 00.395.466h.305a.58.58 0 00.32-.124zM30.471 18.105H27.87a.705.705 0 00-.67.481l-.7 2.02c-.03.094-.045.203-.03.312l.107 1.196a.735.735 0 01-.244.606l-1.856 1.632-1.08.995a.745.745 0 00-.122.932l.35.544a.747.747 0 01.046.715l-1.978 4.18a.78.78 0 01-.426.373l-2.555.824a.693.693 0 01-.807-.295l-.867-1.384a.921.921 0 00-.608-.404l-1.856-.248h-.076l-4.473-.14a1.23 1.23 0 01-.684-.249L8 29.17a.701.701 0 00-.425-.14h-.958a.575.575 0 00-.563.481c-.259 1.555-.487 2.767-.64 3.264-.273.917-.958 1.57-1.612 2.02-.441.296-.274.98.244 1.057 3.362.482 10.466 1.445 13.432 1.445 6.116 0 15.73 0 18.027-9.355 1.841-7.522-3.103-9.324-4.883-9.806-.06-.016-.106-.031-.152-.031zM7.393 17.017c-.121 0-.243.015-.365.062l-1.4.482a.54.54 0 01-.486-.047l-1.354-.761c-.046-.047-.107-.078-.152-.125L1.87 14.717a.61.61 0 00-1.004.155l-.73 1.601a.592.592 0 00-.015.482l1.11 3.108c.015.046.015.093.03.14l.229 2.315c0 .047.03.109.06.125l1.34 1.072a.12.12 0 01.06.062l.426 1.01c.015.031.015.062.03.093l.944 3.7c.076.279.32.465.593.465h.806a.49.49 0 00.472-.404c.578-3.527 1.278-8.33 1.658-11.05.03-.31-.198-.574-.487-.574z" fill="#FFF"/><path d="M30.684 17.126l-2.982-3.497c-.03-.031-.045-.078-.03-.124l.274-1.43a.123.123 0 00-.03-.124l-1.324-1.492-.015-.016-.837-1.43a.15.15 0 01.045-.186l1.172-.793c.046-.03.06-.108.015-.155l-.791-.808c-.03-.031-.06-.047-.091-.062l-1.141-.435c-.015-.016-.046-.016-.061-.016l-3.849.45c-.06 0-.106.047-.122.11l-.73 3.17c0 .015 0 .015-.015.03l-2.343 4.632a.45.45 0 01-.304.249l-3.392 1.01a.207.207 0 01-.137 0l-2.769-.902a.159.159 0 00-.122.016L8.9 16.97c-.03.016-.045.031-.076.031h-.897c-.38 2.673-1.172 8.206-1.81 12.013h1.627c.03 0 .061.016.076.031l1.643 1.26a.601.601 0 00.35.123l4.686.156h.015l2.145.295a.295.295 0 01.213.14l1.247 1.974c.03.046.092.077.152.062l3.21-1.041c.03-.016.061-.032.076-.078l2.237-4.709a.154.154 0 00-.016-.14l-.806-1.243c-.03-.062-.03-.14.015-.187l1.446-1.32 2.084-1.819a.179.179 0 00.045-.124l-.137-1.616v-.062l.868-2.534c.015-.062.076-.093.136-.093h3.134a.138.138 0 00.137-.14l.107-.668c.015-.015-.092-.124-.122-.155z" fill="#D40008"/></g></svg>